<?xml version="1.0" encoding="UTF-8"?>
<svg xmlns="http://www.w3.org/2000/svg" viewBox="0 0 110.74 130.87">
  <defs>
    <style>
      .cls-1 {
        fill: #fff;
      }

      .cls-2 {
        letter-spacing: -.07em;
      }

      .cls-3 {
        letter-spacing: -.11em;
      }

      .cls-4 {
        letter-spacing: -.1em;
      }

      .cls-5 {
        letter-spacing: -.13em;
      }

      .cls-6 {
        letter-spacing: -.1em;
      }

      .cls-7, .cls-8 {
        letter-spacing: -.08em;
      }

      .cls-8, .cls-9 {
        font-family: Colus-Regular, Colus;
        font-size: 6px;
      }

      .cls-10 {
        letter-spacing: -.1em;
      }

      .cls-11 {
        letter-spacing: -.07em;
      }

      .cls-12 {
        letter-spacing: -.03em;
      }

      .cls-13 {
        letter-spacing: -.13em;
      }

      .cls-14 {
        fill: #ccc;
      }

      .cls-15 {
        letter-spacing: -.02em;
      }

      .cls-16 {
        letter-spacing: -.08em;
      }

      .cls-17 {
        letter-spacing: -.03em;
      }

      .cls-18 {
        letter-spacing: -.01em;
      }

      .cls-19 {
        letter-spacing: -.09em;
      }
    </style>
  </defs>
  <g id="Layer_2" data-name="Layer 2">
    <circle class="cls-14" cx="57.7" cy="65.72" r="35.43"/>
    <g>
      <path class="cls-1" d="m57.7,37.02c-8.09,0-14.67-6.58-14.67-14.67s6.58-14.67,14.67-14.67,14.67,6.58,14.67,14.67-6.58,14.67-14.67,14.67Z"/>
      <path d="m57.7,8.17c7.83,0,14.17,6.35,14.17,14.17s-6.35,14.17-14.17,14.17-14.17-6.35-14.17-14.17,6.35-14.17,14.17-14.17m0-1c-8.37,0-15.17,6.81-15.17,15.17s6.81,15.17,15.17,15.17,15.17-6.81,15.17-15.17-6.81-15.17-15.17-15.17h0Z"/>
    </g>
    <g>
      <circle class="cls-1" cx="20.85" cy="43.04" r="14.67"/>
      <path d="m20.85,28.87c7.83,0,14.17,6.35,14.17,14.17s-6.35,14.17-14.17,14.17-14.17-6.35-14.17-14.17,6.35-14.17,14.17-14.17m0-1c-8.37,0-15.17,6.81-15.17,15.17s6.81,15.17,15.17,15.17,15.17-6.81,15.17-15.17-6.81-15.17-15.17-15.17h0Z"/>
    </g>
    <g>
      <path class="cls-1" d="m20.85,103.07c-8.09,0-14.67-6.58-14.67-14.67s6.58-14.67,14.67-14.67,14.67,6.58,14.67,14.67-6.58,14.67-14.67,14.67Z"/>
      <path d="m20.85,74.22c7.83,0,14.17,6.35,14.17,14.17s-6.35,14.17-14.17,14.17-14.17-6.35-14.17-14.17,6.35-14.17,14.17-14.17m0-1c-8.37,0-15.17,6.81-15.17,15.17s6.81,15.17,15.17,15.17,15.17-6.81,15.17-15.17-6.81-15.17-15.17-15.17h0Z"/>
    </g>
    <g>
      <circle class="cls-1" cx="57.7" cy="108.8" r="14.67"/>
      <path d="m57.7,94.63c7.83,0,14.17,6.35,14.17,14.17s-6.35,14.17-14.17,14.17-14.17-6.35-14.17-14.17,6.35-14.17,14.17-14.17m0-1c-8.37,0-15.17,6.81-15.17,15.17s6.81,15.17,15.17,15.17,15.17-6.81,15.17-15.17-6.81-15.17-15.17-15.17h0Z"/>
    </g>
    <g>
      <path class="cls-1" d="m94.55,103.07c-8.09,0-14.67-6.58-14.67-14.67s6.58-14.67,14.67-14.67,14.67,6.58,14.67,14.67-6.58,14.67-14.67,14.67Z"/>
      <path d="m94.55,74.22c7.83,0,14.17,6.35,14.17,14.17s-6.35,14.17-14.17,14.17-14.17-6.35-14.17-14.17,6.35-14.17,14.17-14.17m0-1c-8.37,0-15.17,6.81-15.17,15.17s6.81,15.17,15.17,15.17,15.17-6.81,15.17-15.17-6.81-15.17-15.17-15.17h0Z"/>
    </g>
    <g>
      <path class="cls-1" d="m94.55,57.71c-8.09,0-14.67-6.58-14.67-14.67s6.58-14.67,14.67-14.67,14.67,6.58,14.67,14.67-6.58,14.67-14.67,14.67Z"/>
      <path d="m94.55,28.87c7.83,0,14.17,6.35,14.17,14.17s-6.35,14.17-14.17,14.17-14.17-6.35-14.17-14.17,6.35-14.17,14.17-14.17m0-1c-8.37,0-15.17,6.81-15.17,15.17s6.81,15.17,15.17,15.17,15.17-6.81,15.17-15.17-6.81-15.17-15.17-15.17h0Z"/>
    </g>
  </g>
  <g id="Layer_4" data-name="Layer 4">
    <text class="cls-9" transform="translate(34.74 5.08)"><tspan class="cls-18" x="0" y="0">К</tspan><tspan class="cls-12" x="4.01" y="0">Л</tspan><tspan class="cls-6" x="7.8" y="0">А</tspan><tspan class="cls-19" x="11.28" y="0">С</tspan><tspan class="cls-7" x="14.71" y="0">С </tspan><tspan class="cls-4" x="19.25" y="0">Д</tspan><tspan class="cls-2" x="22.78" y="0">ОСПЕ</tspan><tspan x="37.94" y="0">Х</tspan><tspan class="cls-7" x="41.76" y="0">А</tspan></text>
    <text class="cls-9" transform="translate(1.07 26.35)"><tspan class="cls-7" x="0" y="0">ИНИЦИ</tspan><tspan class="cls-3" x="21.25" y="0">А</tspan><tspan class="cls-7" x="24.62" y="0">ТИ</tspan><tspan class="cls-16" x="32.04" y="0">В</tspan><tspan class="cls-7" x="35.39" y="0">А</tspan></text>
    <text class="cls-9" transform="translate(79.83 26.34)"><tspan class="cls-2" x="0" y="0">С</tspan><tspan class="cls-10" x="3.49" y="0">К</tspan><tspan class="cls-2" x="6.98" y="0">ОРОСТЬ</tspan></text>
    <text class="cls-9" transform="translate(0 108.55)"><tspan class="cls-11" x="0" y="0">В</tspan><tspan class="cls-4" x="3.45" y="0">Д</tspan><tspan class="cls-5" x="6.98" y="0">О</tspan><tspan class="cls-7" x="11.11" y="0">ХНОВЕНИЕ</tspan></text>
    <text class="cls-9" transform="translate(32.94 129.24)"><tspan class="cls-7" x="0" y="0">БОН</tspan><tspan class="cls-13" x="11.96" y="0">У</tspan><tspan class="cls-2" x="15.14" y="0">С </tspan><tspan class="cls-16" x="19.68" y="0">В</tspan><tspan class="cls-17" x="23.03" y="0">Л</tspan><tspan class="cls-15" x="26.81" y="0">А</tspan><tspan class="cls-7" x="30.76" y="0">ДЕНИЯ</tspan></text>
    <text class="cls-8" transform="translate(78.13 108.55)"><tspan x="0" y="0">ВНИМАНИЕ</tspan></text>
  </g>
  <g id="Layer_5" data-name="Layer 5">
    <path d="m46.65,62.32l-8.75,12.92c-.26.41,0,.95.49,1.01l17.26,1.83-9-15.76h0Zm-8.23,8.32l6.24-10.14-6.35-3.81c-.22-.13-.5.03-.5.28v13.49c0,.33.44.46.61.17Zm.9,8.97l16.11,7.27c.44.2.94-.12.94-.6v-5.44l-16.87-1.85c-.37-.04-.52.46-.18.63h0Zm6.73-21.37l6.63-11.85c.36-.59-.3-1.26-.89-.92l-12.5,8.17c-.2.13-.2.44.01.56l6.76,4.04h0Zm11.65.84h9.05l-7.92-13.96c-.26-.42-.69-.63-1.13-.63s-.87.21-1.13.63l-7.92,13.96h9.05Zm19.39-2.4l-6.35,3.81,6.24,10.14c.17.29.61.16.61-.17v-13.49c0-.26-.28-.42-.5-.28Zm-7.74,1.55l6.76-4.04c.21-.13.22-.43.01-.56l-12.5-8.17c-.6-.34-1.25.34-.89.92l6.63,11.85Zm6.55,20.74l-16.87,1.85v5.44c0,.48.5.8.94.6l16.11-7.27c.33-.16.19-.67-.18-.63h0Zm-7.15-16.66l-9,15.76,17.26-1.83c.48-.05.75-.59.49-1.01l-8.75-12.92h0Zm-11.04-.59h-8.32l8.32,14.57,8.32-14.57h-8.32Z"/>
  </g>
</svg>